<?xml version="1.0" encoding="utf-8"?>
<!-- Generator: Adobe Illustrator 14.0.0, SVG Export Plug-In  -->
<!DOCTYPE svg PUBLIC "-//W3C//DTD SVG 1.1//EN" "http://www.w3.org/Graphics/SVG/1.1/DTD/svg11.dtd" [
	<!ENTITY ns_flows "http://ns.adobe.com/Flows/1.0/">
]>
<svg version="1.1"
	 xmlns="http://www.w3.org/2000/svg" xmlns:xlink="http://www.w3.org/1999/xlink" xmlns:a="http://ns.adobe.com/AdobeSVGViewerExtensions/3.0/"
	 x="0px" y="0px" width="300px" height="300px" viewBox="-10.027 -30.271 300 300" enable-background="new -10.027 -30.271 300 300"
	 xml:space="preserve">
<defs>
</defs>
<path fill="#FFFFFF" stroke="#000000" stroke-width="7" d="M237.276,180.039c-14.582,33.447-107.111,11.705-154.385-22.269
	C35.615,123.795,40.447,89.888,61.74,60.259c30.378-42.271,78.223-14.876,95.475,20.621
	C185.566,139.214,256.639,135.62,237.276,180.039z"/>
<path fill="none" stroke="#000000" stroke-width="7" d="M89.133,107.894c-5.852,4.632-12.325,4.588-16.956-1.265
	c-4.63-5.853-4.425-13.73,1.428-18.361c5.854-4.631,7.287,1.95,11.918,7.802C90.154,101.924,94.987,103.263,89.133,107.894z"/>
<path fill="none" stroke="#000000" stroke-width="7" d="M179.562,155.141c0,4.147-2.359,9.511-6.507,9.511
	c-4.146,0-9.511-5.363-9.511-9.511c0-4.146-0.643-7.508,3.505-7.508C171.195,147.633,179.562,150.994,179.562,155.141z"/>
<path fill="none" stroke="#000000" stroke-width="7" d="M136.455,109.978c-5.336-1.692-11.257-6.971-9.535-12.402
	c1.723-5.434,10.849-10.271,16.187-8.58c5.336,1.691,9.927,2.22,8.205,7.652C149.59,102.081,141.792,111.669,136.455,109.978z"/>
<ellipse cx="81.675" cy="130.365" rx="2.729" ry="2.647"/>
<ellipse cx="115.712" cy="76.308" rx="2.729" ry="2.646"/>
<ellipse cx="175.776" cy="126.362" rx="2.729" ry="2.645"/>
<ellipse cx="185.787" cy="136.372" rx="2.729" ry="2.646"/>
<ellipse cx="205.808" cy="176.414" rx="2.729" ry="2.647"/>
<ellipse cx="135.733" cy="126.362" rx="2.729" ry="2.645"/>
<path d="M179.419,95.709c-2.156-3.333,3.07-6.875,9.61-11.105c6.541-4.228,11.916-7.54,14.071-4.208
	c2.154,3.333-4.326,4.936-10.864,9.166C185.695,93.789,181.572,99.042,179.419,95.709z"/>
<path d="M193.025,108.896c-1.73-3.572,3.891-6.447,10.9-9.842c7.01-3.394,12.751-6.022,14.481-2.45
	c1.729,3.571-4.899,4.368-11.908,7.763C199.49,107.76,194.755,112.468,193.025,108.896z"/>
<path d="M212.994,122.438c-1.73-3.572,3.891-6.447,10.9-9.844c7.01-3.392,12.751-6.02,14.481-2.449
	c1.729,3.572-4.898,4.368-11.907,7.765C219.458,121.304,214.724,126.011,212.994,122.438z"/>
<path d="M166.393,76.504c-1.971-3.445,3.438-6.699,10.199-10.568c6.762-3.865,12.308-6.881,14.279-3.437
	c1.971,3.444-4.588,4.693-11.346,8.562C172.765,74.928,168.362,79.949,166.393,76.504z"/>
<path d="M153.427,60.598c-2.372-3.181,2.606-7.066,8.848-11.724c6.245-4.654,11.385-8.319,13.759-5.139
	c2.373,3.181-3.986,5.214-10.228,9.872C159.562,58.262,155.801,63.779,153.427,60.598z"/>
<path d="M230.246,136.046c-1.347-3.732,4.545-6.004,11.87-8.648c7.327-2.642,13.31-4.657,14.657-0.925
	c1.348,3.733-5.327,3.833-12.651,6.478C236.796,135.593,231.594,139.78,230.246,136.046z"/>
<path d="M246.567,151.034c-0.767-3.894,5.4-5.246,13.043-6.751c7.644-1.501,13.861-2.586,14.629,1.309
	c0.765,3.894-5.847,2.979-13.488,4.484C253.109,151.578,247.332,154.928,246.567,151.034z"/>
<path d="M250.248,171.73c0.388-3.948,6.683-3.472,14.435-2.717c7.753,0.761,14.02,1.51,13.635,5.46
	c-0.387,3.95-6.456,1.174-14.209,0.417C256.358,174.132,249.862,175.68,250.248,171.73z"/>
<path d="M137.78,44.951c-2.814-2.799,1.541-7.37,7.032-12.893c5.496-5.52,10.044-9.898,12.858-7.1
	c2.812,2.799-3.179,5.742-8.671,11.264C143.507,41.742,140.593,47.75,137.78,44.951z"/>
<path d="M85.353,172.844c-3.565-1.744-6.46,3.865-9.884,10.863c-3.419,6.998-6.069,12.729-2.504,14.473
	c3.566,1.741,4.387-4.884,7.808-11.879C84.192,179.304,88.918,174.586,85.353,172.844z"/>
<path d="M105.618,183.395c-3.753-1.292-5.938,4.63-8.476,11.994c-2.534,7.365-4.462,13.378-0.709,14.671
	c3.751,1.291,3.754-5.384,6.291-12.748C105.26,189.948,109.372,184.688,105.618,183.395z"/>
<path d="M129.727,193.701c-3.751-1.294-5.938,4.63-8.476,11.993c-2.533,7.363-4.461,13.377-0.71,14.67
	c3.754,1.292,3.755-5.384,6.293-12.746C129.37,200.255,133.479,194.992,129.727,193.701z"/>
<path d="M63.949,157.607c-3.123-2.452-7.129,2.427-11.94,8.552c-4.809,6.126-8.598,11.176-5.479,13.629
	c3.122,2.449,5.312-3.856,10.123-9.981C61.462,163.682,67.071,160.058,63.949,157.607z"/>
<path d="M47.976,138.788c-2.31-3.23-7.525,0.328-13.863,4.855c-6.336,4.528-11.393,8.309-9.087,11.537
	c2.307,3.23,6.182-2.208,12.519-6.733C43.881,143.919,50.28,142.018,47.976,138.788z"/>
<path d="M151.413,202.625c-3.867-0.895-5.422,5.226-7.177,12.814c-1.751,7.589-3.04,13.77,0.827,14.663s3.171-5.746,4.926-13.334
	C151.741,209.181,155.28,203.518,151.413,202.625z"/>
<path d="M172.239,207.034c-3.957-0.296-4.566,5.988-5.15,13.755c-0.581,7.767-0.919,14.069,3.041,14.369
	c3.957,0.297,2.262-6.159,2.846-13.927C173.559,213.466,176.197,207.331,172.239,207.034z"/>
<path d="M194.228,210.229c-3.874,0.855-2.652,7.048-0.979,14.654c1.678,7.607,3.167,13.74,7.044,12.89
	c3.875-0.854,0.397-6.551-1.276-14.159C197.34,216.011,198.103,209.377,194.228,210.229z"/>
<path d="M34.381,119.471c-2.01-3.42-7.522-0.339-14.236,3.605c-6.713,3.95-12.085,7.266-10.074,10.688
	c2.011,3.42,6.351-1.65,13.067-5.597C29.848,124.22,36.394,122.892,34.381,119.471z"/>
<path d="M54.395,43.192c-3.475,1.917-6.645-3.543-10.408-10.361c-3.762-6.821-6.692-12.412-3.218-14.332
	c3.475-1.917,4.622,4.659,8.387,11.478C52.915,36.795,57.869,41.274,54.395,43.192z"/>
<path d="M18.141,40.884c2.48-3.097,7.493,0.743,13.572,5.61c6.077,4.873,10.917,8.924,8.438,12.023
	c-2.481,3.096-6.05-2.545-12.129-7.414C21.946,46.234,15.659,43.981,18.141,40.884z"/>
<path d="M6.31,65.57c1.132-3.804,7.221-2.135,14.688,0.083c7.464,2.225,13.475,4.153,12.345,7.959
	c-1.133,3.803-6.563-0.079-14.028-2.299C11.85,69.091,5.178,69.374,6.31,65.57z"/>
<path d="M0.002,96.153c-0.14-3.966,6.164-4.326,13.947-4.605c7.783-0.271,14.095-0.359,14.238,3.607
	c0.139,3.965-6.245,2.018-14.028,2.295C6.377,97.724,0.143,100.119,0.002,96.153z"/>
<path d="M93.592,28.197c-3.967-0.085-3.97-6.399-3.804-14.186c0.17-7.788,0.441-14.094,4.409-14.011
	c3.967,0.086,1.66,6.35,1.495,14.136C95.522,21.922,97.559,28.283,93.592,28.197z"/>
<path d="M118.208,27.76c-3.774-1.224-1.958-7.271,0.44-14.68c2.406-7.409,4.48-13.371,8.256-12.148
	c3.774,1.224-0.238,6.558-2.639,13.969C121.864,22.307,121.982,28.984,118.208,27.76z"/>
<path d="M73.254,32.112c-3.872,0.88-5.403-5.246-7.131-12.84c-1.724-7.596-2.989-13.78,0.881-14.662
	c3.869-0.878,3.15,5.758,4.877,13.353C73.604,25.557,77.123,31.234,73.254,32.112z"/>
<path d="M254.135,219.534c-3.133,1.995-7.62-2.931-13.022-9.094c-5.4-6.167-9.671-11.229-6.535-13.229
	c3.134-1.994,5.797,4.093,11.197,10.256C251.174,213.632,257.271,217.538,254.135,219.534z"/>
<path d="M232.104,233.07c-3.228,1.504-6.406-4.571-10.194-12.134c-3.781-7.563-6.739-13.744-3.51-15.254
	c3.226-1.505,4.526,5.45,8.312,13.013C230.494,226.256,235.329,231.563,232.104,233.07z"/>
<path d="M246.591,184.94c2.634-3.252,7.806-0.374,14.075,3.315c6.269,3.691,11.258,6.793,8.626,10.047
	c-2.636,3.251-6.274-1.518-12.543-5.208C250.48,189.403,243.956,188.192,246.591,184.94z"/>
</svg>
