<?xml version="1.0" encoding="utf-8"?>
<!-- Generator: Adobe Illustrator 14.0.0, SVG Export Plug-In  -->
<!DOCTYPE svg PUBLIC "-//W3C//DTD SVG 1.1//EN" "http://www.w3.org/Graphics/SVG/1.1/DTD/svg11.dtd" [
	<!ENTITY ns_flows "http://ns.adobe.com/Flows/1.0/">
]>
<svg version="1.1"
	 xmlns="http://www.w3.org/2000/svg" xmlns:xlink="http://www.w3.org/1999/xlink" xmlns:a="http://ns.adobe.com/AdobeSVGViewerExtensions/3.0/"
	 x="0px" y="0px" width="300px" height="300px" viewBox="-3.458 -16.453 300 300" enable-background="new -3.458 -16.453 300 300"
	 xml:space="preserve">
<defs>
</defs>
<path display="none" fill="#FFFFFF" stroke="#000000" stroke-width="7" d="M120.836,142.614c0.115-2.284,9.295-12.824,25.706-18.317
	c-9.75-1.5-25.39,9.345-25.375,8.26c0.31-22.342-2.531-41.189-11.625-48.01c16,67-22.419,156-22.419,156h19.144
	C106.267,240.547,118.578,187.402,120.836,142.614z"/>
<path display="none" fill="#FFFFFF" stroke="#000000" stroke-width="7" d="M107.542,84.406c-7,10.141-75.906,2.554-74-54.911
	C107.828,13.547,114.542,74.265,107.542,84.406z"/>
<path display="none" fill="#FFFFFF" stroke="#000000" stroke-width="7" d="M148.443,123.978c-4.679-11.4,39.28-65.003,86.395-32.05
	C207.668,162.884,153.122,135.378,148.443,123.978z"/>
<path fill="#FFFFFF" stroke="#000000" stroke-width="7" d="M121.795,180.593c-94.701,119.627-132.372-5.16-30.211-30.209
	c-144.542,20.45-86.857-64.053,0-42.724C-3.514,69.988,57.702-20.578,121.795,77.45c-31.13-109.212,76.549-87.387,42.723,0
	c77.423-104.503,165.127-12.09,30.212,30.21c143.156-15.812,107.25,92.667,0,42.724c111.37,49.943,5.263,134.532-30.212,30.209
	C192.496,331.417,70.063,264.313,121.795,180.593z"/>
<ellipse fill="#FFFFFF" stroke="#000000" stroke-width="7" cx="143.438" cy="129.342" rx="54.448" ry="52.094"/>
</svg>
