<?xml version="1.0" encoding="utf-8"?>
<!-- Generator: Adobe Illustrator 14.0.0, SVG Export Plug-In . SVG Version: 6.00 Build 43363)  -->
<!DOCTYPE svg PUBLIC "-//W3C//DTD SVG 1.1//EN" "http://www.w3.org/Graphics/SVG/1.1/DTD/svg11.dtd">
<svg version="1.1" id="Layer_1" xmlns="http://www.w3.org/2000/svg" xmlns:xlink="http://www.w3.org/1999/xlink" x="0px" y="0px"
	 width="188.65px" height="273.326px" viewBox="-28.158 0 188.65 273.326" enable-background="new -28.158 0 188.65 273.326"
	 xml:space="preserve">
<g id="Animal">
</g>
<g id="LivingThing">
</g>
<g id="plant" display="none">
	<path display="inline" fill="#FFFFFF" stroke="#000000" stroke-width="7" d="M-1292.213,145.469
		c0.115-2.283,9.295-12.823,25.706-18.316c-9.75-1.5-25.39,9.346-25.375,8.261c0.31-22.343-2.531-41.188-11.625-48.011
		c16,67-22.419,156-22.419,156h19.144C-1306.782,243.402-1294.471,190.257-1292.213,145.469z"/>
	<path display="inline" fill="#FFFFFF" stroke="#000000" stroke-width="7" d="M-1305.507,87.26c-7,10.142-75.906,2.555-74-54.91
		C-1305.221,16.402-1298.507,77.12-1305.507,87.26z"/>
	<path display="inline" fill="#FFFFFF" stroke="#000000" stroke-width="7" d="M-1264.605,126.833
		c-4.679-11.399,39.28-65.003,86.395-32.05C-1205.381,165.74-1259.927,138.233-1264.605,126.833z"/>
</g>
<g id="plant2">
</g>
<g id="Layer_4">
</g>
<g id="Thing">
</g>
<g id="arrow">
	<g>
		<polyline fill="none" stroke="#5683FF" stroke-width="70" points="15.236,37.673 111.011,137.991 11.464,234.945 		"/>
		<polyline fill="none" stroke="#5683FF" stroke-width="70" stroke-linecap="round" points="15.236,37.673 111.011,137.991 
			11.464,234.945 		"/>
	</g>
</g>
</svg>
