<?xml version="1.0" encoding="utf-8"?>
<!-- Generator: Adobe Illustrator 14.0.0, SVG Export Plug-In  -->
<!DOCTYPE svg PUBLIC "-//W3C//DTD SVG 1.1//EN" "http://www.w3.org/Graphics/SVG/1.1/DTD/svg11.dtd" [
	<!ENTITY ns_flows "http://ns.adobe.com/Flows/1.0/">
]>
<svg version="1.1"
	 xmlns="http://www.w3.org/2000/svg" xmlns:xlink="http://www.w3.org/1999/xlink" xmlns:a="http://ns.adobe.com/AdobeSVGViewerExtensions/3.0/"
	 x="0px" y="0px" width="300px" height="300px" viewBox="-74.501 -6.443 300 300" enable-background="new -74.501 -6.443 300 300"
	 xml:space="preserve">
<defs>
</defs>
<path fill="#FFFFFF" stroke="#000000" stroke-width="7" d="M4.354,68.607C9.457,46.112,45.903,4.188,77.246,3.507
	c31.343-0.682,95.489,51.126,87.471,76.349c-8.019,25.223-63.754,34.083-83.994,58.285c-20.242,24.199,13.288,47.375,5.999,66.463
	c-7.289,19.089-33.53,14.997-43.006,0c-9.477-14.995-17.494-47.035-2.188-66.463c15.309-19.428,62.752-39.051,62.752-60.331
	c0-15.679-5.505-29.313-23.558-30.676C62.667,45.771,40.071,81.9,29.137,93.489C18.203,105.079-0.748,91.104,4.354,68.607z"/>
<ellipse fill="#FFFFFF" stroke="#000000" stroke-width="7" cx="71.597" cy="261.356" rx="26.788" ry="25.052"/>
</svg>
